<?xml version="1.0" encoding="UTF-8" standalone="no"?>
<!-- Created with Inkscape (http://www.inkscape.org/) -->

<svg
   xmlns:dc="http://purl.org/dc/elements/1.1/"
   xmlns:cc="http://creativecommons.org/ns#"
   xmlns:rdf="http://www.w3.org/1999/02/22-rdf-syntax-ns#"
   xmlns:svg="http://www.w3.org/2000/svg"
   xmlns="http://www.w3.org/2000/svg"
   xmlns:sodipodi="http://sodipodi.sourceforge.net/DTD/sodipodi-0.dtd"
   xmlns:inkscape="http://www.inkscape.org/namespaces/inkscape"
   width="220.63757"
   height="289.63281"
   id="svg2"
   version="1.1"
   inkscape:version="0.47 r22583"
   sodipodi:docname="blackduck.svg">
  <defs
     id="defs4">
    <inkscape:perspective
       sodipodi:type="inkscape:persp3d"
       inkscape:vp_x="0 : 526.18109 : 1"
       inkscape:vp_y="0 : 1000 : 0"
       inkscape:vp_z="744.09448 : 526.18109 : 1"
       inkscape:persp3d-origin="372.04724 : 350.78739 : 1"
       id="perspective10" />
    <inkscape:perspective
       id="perspective3643"
       inkscape:persp3d-origin="0.5 : 0.33333333 : 1"
       inkscape:vp_z="1 : 0.5 : 1"
       inkscape:vp_y="0 : 1000 : 0"
       inkscape:vp_x="0 : 0.5 : 1"
       sodipodi:type="inkscape:persp3d" />
    <inkscape:perspective
       id="perspective4533"
       inkscape:persp3d-origin="0.5 : 0.33333333 : 1"
       inkscape:vp_z="1 : 0.5 : 1"
       inkscape:vp_y="0 : 1000 : 0"
       inkscape:vp_x="0 : 0.5 : 1"
       sodipodi:type="inkscape:persp3d" />
  </defs>
  <sodipodi:namedview
     id="base"
     pagecolor="#ffffff"
     bordercolor="#666666"
     borderopacity="1.0"
     inkscape:pageopacity="0.0"
     inkscape:pageshadow="2"
     inkscape:zoom="1.4481878"
     inkscape:cx="98.063458"
     inkscape:cy="192.12487"
     inkscape:document-units="px"
     inkscape:current-layer="layer1"
     showgrid="false"
     inkscape:window-width="1397"
     inkscape:window-height="870"
     inkscape:window-x="43"
     inkscape:window-y="0"
     inkscape:window-maximized="1" />
  <metadata
     id="metadata7">
    <rdf:RDF>
      <cc:Work
         rdf:about="">
        <dc:format>image/svg+xml</dc:format>
        <dc:type
           rdf:resource="http://purl.org/dc/dcmitype/StillImage" />
        <dc:title></dc:title>
      </cc:Work>
    </rdf:RDF>
  </metadata>
  <g
     inkscape:label="Layer 1"
     inkscape:groupmode="layer"
     id="layer1"
     transform="translate(-148.84542,-294.57151)">
    <path
       style="fill:#000000;fill-opacity:1;stroke:none"
       d="m 251.79346,307.8467 c -8.71757,0.78865 -17.43354,2.95971 -25.21081,7.35227 -7.09633,4.03261 -13.33771,9.90606 -17.69572,17.16288 -2.80383,4.56263 -4.5199,9.83411 -5.1952,15.2372 -0.72205,5.5472 -0.76729,11.16021 -1.22109,16.73447 -0.64737,9.59476 -1.26768,19.20978 -2.6591,28.72063 -0.9231,6.21625 -2.55926,12.34043 -5.15665,17.99953 -3.34583,7.84371 -7.26945,15.38154 -10.92576,23.0594 -2.26708,4.53955 -5.0205,8.76828 -7.78753,12.96741 -1.71814,2.72056 -3.10108,5.75379 -3.54455,9.03207 -0.97396,5.56823 -0.41513,11.262 0.0199,16.85916 0.29637,2.66089 0.58606,5.35332 1.27416,7.93055 0.71381,1.35911 2.64677,1.18513 3.49617,0.0706 4.16203,-3.69965 7.81789,-7.98165 11.65227,-12.05256 0.71622,-0.72248 1.46218,-1.41007 2.22404,-2.07655 1.37656,-0.41545 2.57271,1.39264 2.0363,2.71698 -0.90288,9.0349 0.36876,18.37912 4.08582,26.58085 2.84023,6.48832 6.17454,12.7207 8.83169,19.30141 1.20697,3.18461 2.71051,6.46078 2.443,9.99394 -0.35266,4.12821 -2.59221,7.84226 -5.54877,10.42224 -2.52605,2.11788 -5.41327,3.66692 -8.18201,5.38028 -15.22476,8.96218 -30.48018,17.86455 -45.70981,26.81733 -0.66644,1.00764 0.72857,2.34771 1.63704,1.69009 9.65283,-2.57794 19.49707,-4.1734 29.30686,-5.88323 1.60967,0.12635 2.33228,2.72203 1.03812,3.76527 -3.22748,4.55683 -6.45497,9.11366 -9.68245,13.67049 -0.20067,1.02518 1.4508,1.48162 1.77678,0.51345 8.04547,-6.09404 16.69414,-11.34672 25.93298,-15.06108 2.31319,1.01066 3.39772,4.0465 2.75501,6.54643 -0.24126,3.45745 -0.54776,6.91079 -0.67877,10.37589 0.41108,0.92477 1.84934,0.5442 1.97642,-0.40648 5.44184,-9.35228 11.16597,-18.56468 15.59173,-28.53903 0.54423,-3.14804 -1.02908,-6.33074 -3.31399,-8.23653 -3.44936,-4.58839 -2.59659,-12.16363 1.87207,-15.64687 5.0167,-4.0045 11.96581,-4.68573 17.73293,-2.26149 5.82536,2.17349 11.50604,4.85044 17.48445,6.51449 3.05671,0.29726 5.71825,-1.63323 8.52912,-2.57193 6.77868,-2.53867 14.20405,-3.47315 21.27319,-1.87599 3.42476,0.98947 5.70672,5.18937 4.72358,8.86564 -0.64118,3.31916 -2.37707,6.48418 -1.98236,9.96633 0.3881,2.31445 2.31636,3.84885 4.17629,4.81346 16.12796,8.90392 32.26018,17.80145 48.38917,26.7042 0.86092,0.0708 1.18711,-1.43806 0.41924,-1.81845 -2.55036,-3.28691 -1.2818,-8.98117 2.39566,-10.654 2.52332,-1.06523 5.28389,-0.93245 7.94559,-0.94132 0.77905,-0.374 0.29582,-1.80687 -0.49909,-1.71149 -2.22522,-0.58153 -3.41579,-3.90965 -1.8766,-5.81905 2.52561,-1.82751 5.70246,-1.56735 8.6044,-1.71149 4.83124,-0.19967 9.66248,-0.39934 14.49372,-0.59902 0.82955,-0.37441 0.3899,-1.93886 -0.47913,-1.81845 -13.37462,-4.29955 -26.84391,-8.32038 -39.94749,-13.52033 -6.39381,-2.45227 -12.73248,-5.27477 -18.36298,-9.40025 -3.27284,-2.3364 -6.36541,-5.01955 -8.98114,-8.17599 -1.80349,-2.30461 -2.79718,-5.48065 -2.0978,-8.46042 0.78862,-4.50873 2.67596,-8.69661 3.46704,-13.20567 1.22566,-6.03325 1.55755,-12.27162 3.31588,-18.17846 0.81016,-1.80023 3.25963,-2.06861 4.58158,-0.77562 1.37746,1.16895 1.88951,3.06461 2.92235,4.53214 2.10558,3.51811 4.21206,7.29302 7.58871,9.57169 0.78789,0.58176 1.98091,0.1454 2.19818,-0.87618 0.70524,-2.46341 0.006,-5.06476 0.45949,-7.5667 0.62124,-7.74501 1.81504,-15.54192 0.91002,-23.31864 -0.94648,-8.13556 -3.51117,-15.91119 -6.0507,-23.60188 -2.60111,-7.02394 -6.58902,-13.45298 -8.34325,-20.82925 -1.2999,-6.87499 -1.72947,-13.88881 -2.47681,-20.84662 -1.57771,-15.85731 -3.00487,-31.74904 -5.48142,-47.48204 -0.88726,-5.59354 -1.85628,-11.23508 -3.96048,-16.47559 -1.97959,-5.24488 -5.02963,-10.02158 -8.94121,-13.82898 -4.9821,-4.95903 -10.99825,-8.57144 -17.22767,-11.40392 -6.42024,-2.84592 -13.36266,-4.57389 -20.34059,-4.23725 z"
       id="path3628" />
    <path
       style="fill:#ffb400;fill-opacity:1;stroke:none"
       d="M 249.21875 368.3125 C 246.9026 368.67953 244.7635 369.80122 242.60175 370.68262 C 238.45749 372.57035 234.17826 374.51296 229.54214 374.62685 C 224.06478 375.13181 218.19211 375.60597 213.59375 378.9375 C 211.44674 380.93572 212.5075 384.95266 215.21158 385.88705 C 220.39346 389.6397 226.7486 391.52792 231.55578 395.8394 C 237.17346 400.23677 241.88594 405.90574 244.625 412.53125 C 245.75719 414.95786 247.54811 417.0003 248.55956 419.48772 C 249.93769 422.19631 251.32064 424.96885 253.21875 427.34375 C 254.72393 428.30202 256.51261 426.83371 256.98665 425.37892 C 260.84215 417.73799 264.89918 410.19023 269.30262 402.85055 C 272.22124 398.13762 276.11619 394.05934 280.64895 390.87333 C 283.76169 388.57043 286.96301 386.39047 290.125 384.15625 C 291.86134 381.95751 290.35958 378.44413 287.77817 377.72288 C 282.43259 374.57794 276.03392 374.78768 270.08172 373.95632 C 265.25953 373.2552 260.66242 371.5375 256.23315 369.5666 C 253.97756 368.8082 251.62838 368.0823 249.21875 368.3125 z "
       id="path3630" />
    <path
       style="fill:#ffffff;fill-opacity:1;stroke:none"
       d="m 215.2597,350.8264 c -3.14039,1.73128 -3.63009,7.05518 -0.86594,9.41116 4.8127,4.46907 11.65483,6.6197 17.89507,4.87975 1.0758,-0.28933 2.34869,-0.76496 2.69511,-2.03239 -0.22795,-2.00834 -1.86566,-3.28587 -2.95654,-4.78033 -1.15918,-1.33505 -2.38171,-2.60266 -3.57163,-3.90546 0.0983,-0.87748 -1.32242,-0.16536 -0.58905,0.31545 1.34028,1.93294 2.87911,3.7544 3.80975,5.97087 0.45604,0.72359 1.00083,1.39074 1.35102,2.18554 -0.3446,0.79834 -1.30943,0.25412 -1.75043,-0.16066 -1.80056,-1.49723 -3.02361,-3.6283 -4.75777,-5.20913 -2.88064,-2.78604 -6.19198,-5.14703 -9.86525,-6.53624 -0.43337,-0.11423 -0.96513,-0.28473 -1.39434,-0.13856 z"
       id="path3632" />
    <path
       style="fill:#ffffff;fill-opacity:1;stroke:none"
       d="m 289.74499,350.8479 c 3.14039,1.73128 3.63009,7.05518 0.86595,9.41115 -4.81271,4.46907 -11.65484,6.61971 -17.89507,4.87976 -1.07581,-0.28934 -2.3487,-0.76497 -2.69512,-2.03239 0.22796,-2.00834 1.86567,-3.28588 2.95654,-4.78033 1.15918,-1.33505 2.38172,-2.60266 3.57163,-3.90546 -0.0983,-0.87748 1.32242,-0.16537 0.58905,0.31544 -1.34027,1.93295 -2.87911,3.75441 -3.80975,5.97088 -0.45604,0.72358 -1.00083,1.39073 -1.35101,2.18553 0.34459,0.79834 1.30942,0.25413 1.75042,-0.16066 1.80057,-1.49723 3.02362,-3.62829 4.75778,-5.20912 2.88063,-2.78604 6.19198,-5.14703 9.86524,-6.53624 0.43337,-0.11424 0.96513,-0.28474 1.39434,-0.13856 z"
       id="path3632-3" />
    <path
       style="fill:#ffb400;fill-opacity:1;stroke:none"
       id="path4429"
       d="m 244.93599,380.43755 c -0.72591,1.1555 -1.27242,2.42218 -1.59854,3.76936 -0.0242,0.15016 -0.0546,0.29933 -0.0726,0.45049 -0.10789,0.90486 0.31984,0.13858 -0.54652,-0.0305 0.73498,-1.01762 1.27146,-2.178 1.88592,-3.27963 0.57232,-1.03987 1.1071,-2.0874 1.80568,-3.03688 0.0323,-0.0882 0.14871,-0.0393 0.11642,0.0489 l 0,0 c -0.10089,1.23866 -0.47471,2.37787 -0.89255,3.53507 -0.54603,1.44568 -1.14885,2.99487 -2.2948,4.01426 -0.20451,0.0585 -0.40411,0.20837 -0.61352,0.1754 -1.07165,-0.16871 -0.81757,-1.47991 -0.67493,-2.23823 0.37295,-1.51478 0.86678,-2.9968 1.70886,-4.29442 0.58467,-0.89158 1.76129,-0.005 1.17662,0.88607 z" />
    <path
       style="fill:#000000;fill-opacity:1;stroke:none"
       id="path4435"
       d="m 245.16772,376.75696 c -0.27754,1.60577 -0.75846,3.15832 -1.3173,4.67391 -0.35547,0.86268 -0.63808,1.68162 -1.53946,1.956 -0.15572,-0.0541 -0.32985,-0.0668 -0.46714,-0.16229 -0.69411,-0.48291 -0.47507,-1.72598 -0.36541,-2.4214 0.3091,-1.46356 1.04561,-2.6791 2.12663,-3.61314 0.19235,-0.11001 0.38469,-0.22002 0.57703,-0.33003 0.0229,-0.0263 0.0576,0.008 0.0348,0.0346 l 0,0 c -0.0805,0.20434 -0.16094,0.40867 -0.24141,0.613 -0.50366,1.1564 -1.09127,2.28155 -1.42716,3.51256 -0.0798,0.39482 -0.10942,0.44221 -0.11792,0.82423 -0.003,0.13534 0.069,0.27558 0.0312,0.40476 -0.0279,0.0953 -0.41051,-0.27174 -0.27938,0.009 -0.0319,0.0261 -0.0702,0.0451 -0.0959,0.0783 -0.0499,0.0645 0.12472,-0.10546 0.16828,-0.17501 0.22818,-0.3643 0.38287,-0.77705 0.55338,-1.17304 0.53229,-1.43874 0.94122,-2.92598 1.22139,-4.44501 0.1407,-0.86262 1.27909,-0.64938 1.13839,0.21324 z" />
    <path
       style="fill:#000000;fill-opacity:1;stroke:none"
       id="path4439"
       d="m 256.15096,376.55175 c 0.62337,1.21706 1.33776,2.37878 2.27867,3.33933 0.20206,0.10471 0.63816,0.70481 0.92576,0.60484 0.10311,-0.0358 -0.21911,-0.0146 -0.32504,0.0101 -0.0549,0.0643 -0.0969,0.14493 -0.1649,0.19282 -0.0183,0.0129 -0.82359,-1.11765 -0.92506,-1.24568 -0.52409,-0.60869 -1.0569,-1.20181 -1.56193,-1.82901 -0.25497,-0.17724 -0.18908,-0.5531 -0.37931,-0.75404 -0.03,-0.009 -0.0178,-0.0546 0.0121,-0.0455 l 0,0 c 0.32231,-0.046 0.58916,-0.2048 0.9125,-0.0125 0.82808,0.3989 1.48728,0.98787 2.04653,1.76081 0.39576,0.56188 1.1306,1.43463 1.03476,2.21569 -0.0233,0.1899 -0.12571,0.35861 -0.18858,0.53792 -0.14996,0.083 -0.2861,0.20528 -0.44989,0.2489 -0.57726,0.15371 -1.22319,-0.63237 -1.63115,-0.91558 -0.99242,-1.04284 -1.78037,-2.2658 -2.49566,-3.53966 -0.37509,-0.69042 0.53605,-1.25888 0.91115,-0.56846 z" />
    <path
       style="fill:#000000;fill-opacity:1;stroke:none"
       id="path4489"
       d="m 215.20524,355.45228 c 2.18341,0.0597 4.31149,0.49121 6.3965,1.16432 1.68515,0.61173 3.26911,1.51464 4.47088,2.94817 0.38605,0.4605 0.98362,1.39892 1.32529,1.91886 0.40518,1.19849 0.17801,0.65019 0.65819,1.65575 0.0176,0.0277 -0.0189,0.0542 -0.0365,0.0266 l 0,0 c -0.68444,-0.82946 -0.28984,-0.43087 -1.20723,-1.16854 -1.56729,-1.75242 -3.47755,-3.10988 -5.61367,-3.93765 -1.98408,-0.63161 -4.00815,-1.04919 -6.08379,-1.10882 -0.98892,-0.0684 -0.89862,-1.56712 0.0903,-1.4987 z" />
    <path
       style="fill:#000000;fill-opacity:1;stroke:none"
       id="path4491"
       d="m 216.89507,356.74254 c 1.07876,1.88461 2.73905,3.06916 4.56131,4.00161 2.03432,0.84127 4.21919,1.28675 6.39118,1.45563 0.90408,0.0999 0.47728,-10e-4 1.28438,0.28387 0.0308,-0.005 0.0378,0.0413 0.007,0.0467 l 0,0 c -0.75149,0.55423 -0.3303,0.34367 -1.2777,0.59816 -0.58895,0.0618 -1.38521,0.16093 -1.96793,0.15177 -1.7358,-0.0273 -3.43211,-0.53356 -5.03345,-1.21809 -2.05633,-1.08353 -3.95249,-2.43912 -5.12022,-4.6225 -0.46,-0.87553 0.69543,-1.57266 1.15543,-0.69713 z" />
    <path
       style="fill:#000000;fill-opacity:1;stroke:none"
       d="m 247.48309,315.40963 c 2.81531,-5.88165 8.0939,-11.32886 14.34894,-12.52255 2.54871,-0.48639 5.15232,-0.3501 7.69028,-0.96932 3.21877,-0.78532 4.43956,-3.40426 1.46928,-5.78972 -1.06137,-0.85239 -2.31123,-1.36362 -3.62631,-1.49328 -0.45664,-0.045 -1.82856,-0.10212 -1.3755,-0.0262 4.02065,0.67388 13.02537,-2.50793 9.87857,6.39227 -2.57003,7.26894 -16.26167,6.60923 -9.87857,14.01583 1.16847,1.35583 13.91243,-4.53724 15.53687,-5.86831 1.01937,-0.83528 1.78173,-2.11157 1.06289,-3.45811 -0.66106,-1.23832 -3.89406,-1.68344 -3.68883,-0.99552 0.0548,0.18372 1.82641,-0.17545 1.90693,-0.18339 1.81003,-0.17845 4.44343,-0.27685 5.75208,1.38849 1.93357,2.46058 -2.12608,4.42506 -3.62631,5.00378 -6.51084,2.51161 -13.87386,5.80778 -14.53651,14.19922 -0.22106,2.79948 0.2824,5.35396 1.81316,7.62356"
       id="path4499" />
    <path
       style="fill:#000000;fill-opacity:1;stroke:none"
       d="m 247.04542,317.45306 c 1.36761,-4.01649 2.84711,-10.29766 0.21884,-14.04203 -3.31979,-4.72951 -16.74895,-7.4414 -16.25588,1.54567 0.17268,3.14752 3.76047,4.04065 6.12721,3.37953 5.38837,-1.50521 -5.27606,-1.43413 0.84406,-3.14375 0.86634,-0.242 1.69281,-0.41033 2.59468,-0.39296 3.34226,0.0644 5.48269,2.75349 5.78335,6.23508 0.19015,2.20193 -0.98116,4.29982 -0.87532,6.33987 0.0392,0.75524 1.03559,1.43016 0.75027,2.12202 -0.34964,0.84787 -1.57651,0.82087 -2.21955,1.44088 -0.0467,0.045 -1.12577,2.24803 -1.21919,2.46259 -1.0105,2.32094 1.17593,2.64348 2.71973,3.6677"
       id="path4501" />
    <path
       style="fill:#000000;fill-opacity:1;stroke:none"
       id="path4489-4"
       d="m 289.37708,356.23477 c -2.1834,0.0597 -4.31149,0.4912 -6.3965,1.16432 -1.68514,0.61172 -3.26911,1.51463 -4.47088,2.94817 -0.38604,0.4605 -0.98362,1.39891 -1.32529,1.91885 -0.40518,1.19849 -0.178,0.6502 -0.65818,1.65576 -0.0176,0.0277 0.0189,0.0542 0.0365,0.0266 l 0,0 c 0.68445,-0.82946 0.28985,-0.43088 1.20723,-1.16855 1.56729,-1.75242 3.47755,-3.10988 5.61367,-3.93764 1.98408,-0.63162 4.00816,-1.04919 6.0838,-1.10883 0.98891,-0.0684 0.89861,-1.56712 -0.0903,-1.49869 z" />
    <path
       style="fill:#000000;fill-opacity:1;stroke:none"
       id="path4491-9"
       d="m 287.68725,357.52502 c -1.07876,1.88461 -2.73904,3.06916 -4.5613,4.00162 -2.03433,0.84127 -4.21919,1.28675 -6.39119,1.45563 -0.90408,0.0999 -0.47728,-0.001 -1.28437,0.28387 -0.0308,-0.005 -0.0378,0.0413 -0.007,0.0467 l 0,0 c 0.75149,0.55423 0.3303,0.34366 1.2777,0.59815 0.58896,0.0618 1.38521,0.16094 1.96793,0.15177 1.73581,-0.0273 3.43212,-0.53355 5.03345,-1.21808 2.05634,-1.08353 3.95249,-2.43913 5.12023,-4.6225 0.46,-0.87553 -0.69543,-1.57266 -1.15544,-0.69713 z" />
  </g>
</svg>
