<?xml version="1.0" encoding="UTF-8" standalone="no"?>
<!-- Created with Inkscape (http://www.inkscape.org/) -->

<svg
   xmlns:dc="http://purl.org/dc/elements/1.1/"
   xmlns:cc="http://creativecommons.org/ns#"
   xmlns:rdf="http://www.w3.org/1999/02/22-rdf-syntax-ns#"
   xmlns:svg="http://www.w3.org/2000/svg"
   xmlns="http://www.w3.org/2000/svg"
   xmlns:sodipodi="http://sodipodi.sourceforge.net/DTD/sodipodi-0.dtd"
   xmlns:inkscape="http://www.inkscape.org/namespaces/inkscape"
   width="480.48352"
   height="473.13538"
   id="svg2"
   version="1.1"
   inkscape:version="0.48.0 r9654"
   sodipodi:docname="fat bird.svg">
  <defs
     id="defs4" />
  <sodipodi:namedview
     id="base"
     pagecolor="#ffffff"
     bordercolor="#666666"
     borderopacity="1.0"
     inkscape:pageopacity="0.0"
     inkscape:pageshadow="2"
     inkscape:zoom="1"
     inkscape:cx="327.9965"
     inkscape:cy="223.96051"
     inkscape:document-units="px"
     inkscape:current-layer="layer1"
     showgrid="false"
     inkscape:window-width="1440"
     inkscape:window-height="851"
     inkscape:window-x="0"
     inkscape:window-y="26"
     inkscape:window-maximized="1"
     fit-margin-top="0"
     fit-margin-left="0"
     fit-margin-right="0"
     fit-margin-bottom="0" />
  <metadata
     id="metadata7">
    <rdf:RDF>
      <cc:Work
         rdf:about="">
        <dc:format>image/svg+xml</dc:format>
        <dc:type
           rdf:resource="http://purl.org/dc/dcmitype/StillImage" />
        <dc:title></dc:title>
      </cc:Work>
    </rdf:RDF>
  </metadata>
  <g
     inkscape:label="Layer 1"
     inkscape:groupmode="layer"
     id="layer1"
     transform="translate(-97.719802,-279.44829)">
    <g
       id="g4180">
      <path
         sodipodi:nodetypes="ccccccccccccccc"
         inkscape:connector-curvature="0"
         id="path4008"
         d="m 202.60123,723.08522 c -14.59256,-7.81005 -35.97115,-15.23267 -50.04372,-15.65814 4.30244,10.20061 41.53412,15.5526 13.06823,14.50389 -16.03776,4.82757 -41.63859,-0.90143 -52.49841,6.16921 32.6433,0.75192 65.41165,-0.43763 98.08314,0.72453 19.89566,16.32722 44.64993,18.62544 71.13803,20.55895 24.42923,-7.77804 72.80149,10.51312 73.94454,-8.34272 21.87141,-9.88616 48.20357,-0.46168 70.90508,-12.23689 25.69095,-3.18586 69.48275,-12.25233 73.51792,-16.55716 16.87694,-5.03066 44.53574,-13.46406 29.59462,-35.85197 -23.55086,7.30447 -46.70964,17.33518 -69.67133,26.94893 -26.22697,5.25368 -53.14669,7.08899 -79.02884,14.27504 -24.69312,0.74855 -45.9318,13.48285 -68.35739,22.58002 -24.88144,12.69804 -46.56877,-6.70878 -75.08438,-3.36165 -12.37029,-3.27714 -23.06653,-10.97316 -35.56749,-13.75204 z"
         style="fill:#c87137;stroke:none" />
      <path
         sodipodi:nodetypes="cccccccccccc"
         inkscape:connector-curvature="0"
         id="path4012"
         d="m 354.21936,713.51941 c -5.45535,1.7796 -0.31726,8.18615 3.02094,9.56183 4.66411,2.4227 7.82858,7.00622 9.46858,11.8897 0.31106,4.25058 -0.46892,8.68055 -2.06475,12.68351 -1.29794,5.90627 8.3782,1.28068 10.84429,-0.84053 4.25852,-1.13224 8.38694,3.67598 12.48168,0.81582 3.43321,-4.03082 8.84064,-1.77464 12.48424,-5.10301 2.41747,-3.5048 5.22562,-6.99035 6.33903,-11.22194 1.07435,-6.85855 -2.03736,-15.34162 -5.48389,-22.0294 -3.50084,-5.07953 -3.62969,-4.41651 -9.16148,-5.26951 -6.1297,-0.0373 -12.55666,-1.14807 -18.35782,1.42169 -6.4996,1.43557 -10.34488,8.14021 -17.17937,8.57014"
         style="fill:#ff8500;fill-opacity:1;stroke:none" />
      <path
         sodipodi:nodetypes="cssssscc"
         inkscape:connector-curvature="0"
         id="path3035"
         d="m 452.08829,725.27775 c -7.98713,0.43275 -20.45377,2.44546 -27.75676,4.87978 -0.81492,0.27164 -2.1358,-0.38153 -2.89888,0 -1.12561,0.56281 -1.77327,1.36979 -2.89888,1.93259 -0.57619,0.2881 -1.35641,-0.28809 -1.93258,0 -1.61064,0.80532 -3.56991,1.30181 -4.83148,1.93259 -2.94676,1.47338 1.76731,0.76604 -2.89887,1.93259 -0.30753,0.0769 -2.60443,1.39884 -4.44495,1.13539"
         style="fill:none;stroke:#803300;stroke-width:3.82632494;stroke-linecap:butt;stroke-linejoin:miter;stroke-opacity:1" />
      <path
         sodipodi:nodetypes="ccccccccccccccc"
         inkscape:connector-curvature="0"
         id="path4014"
         d="m 446.05116,709.69309 c 2.95467,2.7243 3.31532,6.95636 3.7321,10.70975 0.34754,1.41831 0.17926,2.77917 -0.0651,4.19341 -0.13882,2.51687 0.12057,5.54113 2.29579,7.17763 1.38597,0.8449 3.59784,0.73751 4.54855,-0.68185 1.97084,-2.084 5.04185,-1.72787 7.64524,-1.73466 1.72984,-0.002 3.52855,-0.41618 4.85251,-1.58875 2.67024,-1.65453 6.27888,-0.622 8.72998,-2.72195 1.2506,-1.17287 4.52215,-4.8203 4.13666,-6.32951 -0.2762,-4.09773 -0.64043,-5.95597 -1.77596,-10.08089 -0.61392,-3.28146 -0.30455,-6.99616 -2.42508,-9.78897 -1.46124,-1.86962 -4.0175,-1.75685 -6.14899,-1.68289 -4.81611,0.0813 -9.62744,0.54446 -14.36568,1.4139 -4.53044,2.81061 -7.48891,7.37109 -11.16006,11.11478 z"
         style="fill:#ff8500;fill-opacity:1;stroke:none" />
      <path
         sodipodi:nodetypes="cssssssssssssssssssssssscssssssssccsssscsssssssssssccssssssscssssssccssssssc"
         inkscape:connector-curvature="0"
         id="path3037"
         d="m 354.61349,724.31146 c -3.92776,-1.03492 -9.98902,2.09867 -13.38316,2.9472 -0.62496,0.15624 -1.32145,-0.20371 -1.93259,0 -1.10174,0.36724 -1.79713,1.56533 -2.89887,1.93258 -1.72319,0.5744 -4.20024,1.13383 -5.79776,1.93259 -4.42234,2.21117 4.10039,-0.4005 -2.89888,1.93258 -1.47261,0.49087 -3.37129,0.95914 -4.83146,1.9326 -0.75803,0.50534 -1.11774,1.52515 -1.93259,1.93258 -1.39227,0.69613 -3.48735,1.26052 -4.83147,1.93259 -1.6071,0.80354 -2.97725,2.2808 -4.83146,2.89887 -2.46065,0.82022 -5.23355,0.3421 -7.73034,0.9663 -0.69873,0.17468 -1.23386,0.79161 -1.93259,0.96629 -1.15143,0.28785 -20.88493,0.4466 -22.22474,0 -3.79993,-1.26665 -0.0652,-0.66594 -3.86517,-1.93259 -0.61113,-0.20371 -1.3564,0.28809 -1.93258,0 -2.22259,-1.11129 -3.43825,-2.309 -5.79777,-2.89887 -1.24991,-0.31249 -2.61524,0.31247 -3.86517,0 -2.62064,-0.65517 -4.91517,-1.36956 -7.73034,-1.93259 -2.78738,-0.55748 -5.90925,0.55747 -8.69664,0 -4.424,-0.8848 -9.3994,-1.52265 -13.52809,-2.89888 -0.91671,-0.30557 -1.96144,0.23436 -2.89888,0 -6.40967,-1.60242 -12.17313,-6.22206 -18.35957,-8.69664 -2.78331,-1.11332 -6.01794,-1.55952 -8.69663,-2.89888 -3.56882,-1.7844 -6.50631,-4.14431 -10.62923,-4.83146 -0.95315,-0.15886 -1.96976,0.26546 -2.89888,0 -9.4696,-4.7348 -0.17601,-0.80824 -5.79775,-1.93258 -3.5064,-0.70128 -7.67799,-1.42327 -10.62923,-2.89888 -0.57618,-0.2881 -1.3564,0.28809 -1.93259,0 -5.14718,-2.5736 -10.43466,-5.33342 -16.42697,-7.73035 -1.48004,-0.59202 -8.99047,-1.93259 -10.62923,-1.93259 -1.61049,0 -3.22097,0 -4.83146,0 -0.3221,0 -0.96629,0.3221 -0.96629,0 0,-1.61747 6.44513,2.79258 6.76404,2.89888 0.61114,0.20372 1.30763,-0.15624 1.93259,0 1.74893,-0.58241 1.79714,1.56534 2.89888,1.93259 0.61113,0.20371 1.32144,-0.20371 1.93258,0 1.27733,0.42577 2.63347,2.28303 3.86518,2.89888 0.57618,0.28809 1.3564,-0.2881 1.93259,0 1.15955,0.57977 1.73932,2.3191 2.89887,2.89888 1.18572,0.59286 2.55383,1.05835 3.86517,1.93259 0.75802,0.50534 1.11774,1.52515 1.93259,1.93258 1.25377,0.62688 2.55976,1.27987 3.86517,1.93259 0.10465,0.0523 9.54948,0.2269 8.69664,1.93258 -1.00895,2.0179 -8.70762,0.96629 -10.62923,0.96629 -3.73976,0 -8.96101,-0.90019 -12.5618,0 -1.84454,0.46114 -3.31514,1.17442 -4.83147,1.93259 -1.03071,0.51536 -2.83446,-0.51536 -3.86517,0 -1.12561,0.56281 -1.77327,1.36978 -2.89888,1.93258 -0.76308,0.38154 -2.08396,-0.27164 -2.89888,0 -2.48206,0.82736 -4.26762,-1.26961 -6.51519,-0.70772 -4.50691,1.12673 -7.27433,-1.41545 -12.08351,-1.41545 -5.15358,0 -10.30714,1.67402 -15.4607,1.67402 -6.80908,0.22271 -11.273747,1.88863 -6.5249,2.38174 25.22624,3.33479 50.89142,0 76.33714,0 9.66293,0 19.32586,0 28.98879,0 0.1857,0 7.41977,1.86288 8.9552,2.6306 2.36424,1.18212 5.18428,3.64781 6.78348,6.04662 0.80804,1.21205 5.01326,1.2156 6.48606,1.95201 0.91103,0.45551 1.98785,0.51077 2.89888,0.96629 2.16677,1.08338 4.25123,3.23696 6.76405,3.86517 0.62496,0.15624 1.32145,-0.20371 1.93258,0 0.43215,0.14404 0.55887,0.76258 0.9663,0.96629 1.29746,0.64873 4.24206,1.54366 5.79775,1.93259 2.42522,0.6063 5.30515,-0.6063 7.73035,0 1.66886,0.41721 3.19578,1.38736 4.83146,1.93258 3.27509,1.0917 10.80737,0 14.4944,0 10.30712,0 20.61424,0 30.92137,0 2.7706,0 7.02192,-0.88033 9.66293,0 0.43214,0.14405 0.55887,0.76259 0.96629,0.96629 1.66847,0.83424 15.55213,0 18.35957,0 3.30428,0 8.48973,1.03527 11.59552,0 1.21566,-0.40522 2.43945,-1.45734 3.86517,-1.93258 0.61114,-0.20371 1.3564,0.28809 1.93259,0 1.68494,-0.84247 5.92157,-5.0791 6.76404,-6.76405 0.49836,-0.9967 0.56854,-2.21685 1.93259,-2.89888 1.54415,-0.77208 3.51752,-0.61864 4.83146,-1.93258"
         style="fill:none;stroke:#803300;stroke-width:3.82632494;stroke-linecap:butt;stroke-linejoin:miter;stroke-opacity:1" />
      <path
         sodipodi:nodetypes="cssssscssc"
         inkscape:connector-curvature="0"
         id="path3039"
         d="m 481.34281,716.62944 c 2.64495,0.13851 8.75788,2.38511 11.59552,0.96629 5.82563,-2.91281 12.28745,-5.66058 18.35957,-8.69664 2.28095,-1.14048 4.28163,-3.0377 6.76404,-3.86517 4.53573,-1.51191 12.01689,-1.80904 14.4944,-6.76405 0.38651,-0.77303 -0.38652,-2.12585 0,-2.89888 0.20371,-0.40743 0.76258,-0.55886 0.96629,-0.96629 0.90187,-1.80375 -0.90187,-4.96031 0,-6.76405 0.69756,-1.39513 1.23503,-2.47005 1.93259,-3.86518 0.74822,-1.49642 -0.54084,-3.42096 0.96629,-4.92809"
         style="fill:none;stroke:#803300;stroke-width:3.82632494;stroke-linecap:butt;stroke-linejoin:miter;stroke-opacity:1" />
      <path
         inkscape:connector-curvature="0"
         id="path3023"
         d="m 346.0618,722.42719 c 7.8216,-2.20953 5.72617,-0.77841 10.62922,2.89888 2.8566,2.14246 7.97413,5.31904 9.66293,8.69664 0.67175,1.34351 0,5.30009 0,6.76405 0,5.25466 -7.44391,7.39041 -2.89888,9.66293 0.80249,0.40124 2.9491,0 3.86518,0 2.20667,0 3.85469,0.32908 5.79775,-0.9663 4.65463,-3.10308 5.59507,-9.25754 7.73034,-13.52809 0.81881,-1.63761 0,-5.85893 0,-7.73035 0,-0.91608 0.40125,-3.06268 0,-3.86517 -1.201,-2.402 -4.20892,-3.24263 -5.79775,-4.83146"
         style="fill:none;stroke:#800000;stroke-width:3.82632494;stroke-linecap:butt;stroke-linejoin:miter;stroke-opacity:1" />
      <path
         sodipodi:nodetypes="cssssscc"
         inkscape:connector-curvature="0"
         id="path3025"
         d="m 391.47757,720.49461 c 1.28839,0.3221 2.67733,0.37237 3.86517,0.96629 0.37846,0.18923 0,5.45498 0,5.79776 0,2.10562 0.89844,6.89976 0,8.69664 -0.40743,0.81484 -1.52517,1.11773 -1.93258,1.93258 -1.83077,3.66152 -4.94516,7.78719 -8.69665,9.66293 -0.71843,0.35922 -3.75664,2.04112 -4.83146,0.96629 -2.06952,-2.01022 -2.14239,-3.00243 -1.13539,-5.12134"
         style="fill:none;stroke:#800000;stroke-width:3.82632494;stroke-linecap:butt;stroke-linejoin:miter;stroke-opacity:1" />
      <path
         sodipodi:nodetypes="cssssc"
         inkscape:connector-curvature="0"
         id="path3027"
         d="m 403.07308,717.59573 c 0.6442,1.28839 1.47708,2.49863 1.93259,3.86517 0.38652,1.15955 -0.38652,2.70562 0,3.86517 0.79642,2.38926 1.8462,6.05689 0.96629,8.69664 -0.83548,2.50644 -2.49866,3.74799 -3.86517,5.79776 -2.73184,4.09775 -6.8924,3.81685 -11.95788,3.81685"
         style="fill:none;stroke:#800000;stroke-width:3.82632494;stroke-linecap:butt;stroke-linejoin:miter;stroke-opacity:1" />
      <path
         sodipodi:nodetypes="cssssssssc"
         inkscape:connector-curvature="0"
         id="path3029"
         d="m 444.62368,711.79798 c 4.61822,1.33812 5.11976,4.44177 6.76405,7.73034 0.66636,1.3327 0.34615,6.34576 0,7.73034 -0.20144,0.80573 -2.56068,1.64084 -2.56068,2.17416 0,0.64419 0.95019,1.69101 1.59439,1.69101 1.93258,0 3.86517,0 5.79775,0 2.15574,0 4.75279,-1.77522 5.79777,-3.86517 0.5633,-1.12662 1.71771,-10.09267 0.96629,-11.59551 -0.56281,-1.12561 -1.36979,-1.77328 -1.93259,-2.89888 -0.74821,-1.49644 0.54084,-1.39175 -0.9663,-2.89889"
         style="fill:none;stroke:#800000;stroke-width:3.82632494;stroke-linecap:butt;stroke-linejoin:miter;stroke-opacity:1" />
      <path
         inkscape:connector-curvature="0"
         id="path3031"
         d="m 466.84842,707.9328 c 1.13278,0.28319 4.01487,0.29942 4.83146,1.93258 0.28809,0.57619 -0.20371,1.32145 0,1.9326 1.82791,5.48373 2.48731,15.18331 -3.86517,18.35955 -0.84655,0.42328 -6.76405,0.33504 -6.76405,-0.96629 0,-0.72023 0.6442,-1.28839 0.9663,-1.93258"
         style="fill:none;stroke:#800000;stroke-width:3.82632494;stroke-linecap:butt;stroke-linejoin:miter;stroke-opacity:1" />
      <path
         sodipodi:nodetypes="ccscsccc"
         inkscape:connector-curvature="0"
         id="path3033"
         d="m 477.47764,706.00021 0,0 c 0,2.06243 2.72114,3.11543 3.86517,4.83147 0.76075,1.14113 -0.22485,10.48335 -0.9663,11.59551 -0.62614,0.93923 -2.99059,4.39418 -3.86517,4.83147 -0.77303,0.38652 -2.12584,-0.38651 -2.89887,0 -0.40743,0.20371 -1.65881,-0.40262 -1.98091,-0.72472 -0.32209,-0.3221 1.65881,1.04681 1.98091,0.72472"
         style="fill:none;stroke:#800000;stroke-width:3.82632494;stroke-linecap:butt;stroke-linejoin:miter;stroke-opacity:1" />
      <path
         inkscape:connector-curvature="0"
         id="path3009"
         d="m 184.69088,620.96644 c -28.30572,-74.21608 -49.72032,-161.402 -14.98178,-237.04785 33.44984,-53.04754 104.0158,-56.40302 160.18665,-51.30768 79.53178,3.98745 157.40446,44.18259 199.82144,112.70228 24.56175,35.77479 33.0446,78.93894 44.30392,119.80467 9.84734,64.39676 -36.36513,137.14992 -104.72762,140.71555 -77.55987,13.24837 -162.28346,28.78952 -236.81934,-4.72731 -27.54899,-17.59694 -37.89462,-50.85367 -47.78327,-80.13966 z"
         style="fill:#5fbcd3;stroke:#162d50;stroke-width:5.73948717;stroke-linecap:butt;stroke-linejoin:miter;stroke-opacity:1" />
      <path
         transform="translate(42.983568,115.23122)"
         inkscape:connector-curvature="0"
         id="path4166"
         d="m 358,274.47473 c -24.58769,12.8079 -59.49464,48.75268 -19,69 15.46427,7.73214 35.72638,3.81759 51,14 17.28465,11.5231 21.46618,29.46618 34,42 3.2059,3.2059 -2.75446,-8.64062 -4,-13 -2.97827,-10.42394 -10,-22.6353 -10,-33 0,-59.8924 -27.99637,-48.99546 -52,-79 z"
         style="fill:#59a2b4;fill-opacity:1;stroke:none" />
      <path
         sodipodi:nodetypes="ccccc"
         inkscape:connector-curvature="0"
         id="path3013"
         d="m 384.02886,420.18144 c -5.02101,22.54955 11.74508,35.44384 54.90787,37.30249 31.79723,2.12718 47.58846,-1.36985 75.22363,14.6353 l -70.97895,-57.53145 z"
         style="fill:#d4aa00;stroke:#cb1901;stroke-width:3.82632494;stroke-linecap:butt;stroke-linejoin:miter;stroke-opacity:1" />
      <path
         transform="translate(42.983568,115.23122)"
         inkscape:connector-curvature="0"
         id="path4172"
         d="m 286,262.47473 c 0.0105,8.59586 -1.97681,18.0116 7,22.5 2.50432,1.25216 7.76359,2.57881 11,1.5 0.54353,-0.18118 4.5,-3.30681 4.5,-2 0,6.18999 -19.13136,8.68432 -23.5,6.5 -13.35915,-6.67958 -10.42988,-22.78506 1,-28.5 z"
         style="fill:#59a2b4;fill-opacity:1;stroke:none" />
      <path
         sodipodi:nodetypes="ccccccc"
         inkscape:connector-curvature="0"
         id="path3011"
         d="m 383.99973,409.50366 c 5.44173,-10.72291 11.71239,-8.56379 18.21472,-18.67024 11.09306,-1.3281 21.27284,4.5571 32.10734,5.70472 46.09286,14.65424 67.12885,27.34139 78.8404,68.75941 2.71815,2.43264 4.42498,13.49449 -1.14058,7.80595 -10.35733,-15.78804 -28.00055,-25.87109 -47.9267,-32.2216 -36.43952,-7.24558 -84.85883,-3.91186 -80.09518,-31.37824 z"
         style="fill:#ffcc00;stroke:#cb1901;stroke-width:3.82632494;stroke-linecap:butt;stroke-linejoin:miter;stroke-opacity:1" />
      <path
         transform="translate(42.983568,115.23122)"
         inkscape:connector-curvature="0"
         id="path4174"
         d="m 356,244.47473 c 0.74024,4.43717 -3.38453,14.80773 2,17.5 4.9092,2.4546 13,-0.33846 13,0.5 0,2.34555 -3.2812,3.92707 -5,4.5 -17.81624,5.93875 -25.70366,-22.5 -10,-22.5 z"
         style="fill:#59a2b4;fill-opacity:1;stroke:none" />
      <g
         transform="matrix(0.95658122,0,0,0.95658122,15.589606,19.173274)"
         id="g3984">
        <path
           sodipodi:type="arc"
           style="fill:#ffffff;fill-opacity:1;stroke:#2c5aa0;stroke-width:4.41300249"
           id="path3892"
           sodipodi:cx="322.23865"
           sodipodi:cy="456.37219"
           sodipodi:rx="17.172594"
           sodipodi:ry="17.172594"
           d="m 339.41124,456.37219 c 0,9.48416 -7.68843,17.1726 -17.17259,17.1726 -9.48416,0 -17.1726,-7.68844 -17.1726,-17.1726 0,-9.48416 7.68844,-17.17259 17.1726,-17.17259 9.48416,0 17.17259,7.68843 17.17259,17.17259 z"
           transform="matrix(0.90641234,0,0,0.90641234,48.60556,-30.203853)" />
        <path
           sodipodi:type="arc"
           style="fill:#000000;fill-opacity:1;stroke:none"
           id="path3870"
           sodipodi:cx="332.84528"
           sodipodi:cy="383.13611"
           sodipodi:rx="16.667517"
           sodipodi:ry="16.667517"
           d="m 349.51279,383.13611 c 0,9.20521 -7.4623,16.66752 -16.66751,16.66752 -9.20522,0 -16.66752,-7.46231 -16.66752,-16.66752 0,-9.20522 7.4623,-16.66752 16.66752,-16.66752 3.4732,0 6.85965,1.08501 9.68616,3.10343 l -9.68616,13.56409 z"
           sodipodi:start="0"
           sodipodi:end="5.3325179"
           transform="matrix(0.45594428,-0.24781625,0.24781625,0.45594428,96.556218,289.60603)" />
        <path
           sodipodi:type="arc"
           style="fill:#ffffff;fill-opacity:1;stroke:none"
           id="path3982"
           sodipodi:cx="337.625"
           sodipodi:cy="387.23718"
           sodipodi:rx="3.875"
           sodipodi:ry="3.875"
           d="m 341.5,387.23718 c 0,2.14011 -1.7349,3.875 -3.875,3.875 -2.1401,0 -3.875,-1.73489 -3.875,-3.875 0,-2.1401 1.7349,-3.875 3.875,-3.875 2.1401,0 3.875,1.7349 3.875,3.875 z"
           transform="matrix(0.70967742,0,0,0.70967742,107.39516,109.5487)" />
      </g>
      <g
         transform="matrix(0.77366966,0,0,0.77366966,145.03833,70.541849)"
         id="g3989">
        <path
           transform="matrix(0.90641234,0,0,0.90641234,48.60556,-30.203853)"
           d="m 339.41124,456.37219 c 0,9.48416 -7.68843,17.1726 -17.17259,17.1726 -9.48416,0 -17.1726,-7.68844 -17.1726,-17.1726 0,-9.48416 7.68844,-17.17259 17.1726,-17.17259 9.48416,0 17.17259,7.68843 17.17259,17.17259 z"
           sodipodi:ry="17.172594"
           sodipodi:rx="17.172594"
           sodipodi:cy="456.37219"
           sodipodi:cx="322.23865"
           id="path3991"
           style="fill:#ffffff;fill-opacity:1;stroke:#2c5aa0;stroke-width:4.41300249"
           sodipodi:type="arc" />
        <path
           transform="matrix(0.45594428,-0.24781625,0.24781625,0.45594428,96.556218,289.60603)"
           sodipodi:end="5.3325179"
           sodipodi:start="0"
           d="m 349.51279,383.13611 c 0,9.20521 -7.4623,16.66752 -16.66751,16.66752 -9.20522,0 -16.66752,-7.46231 -16.66752,-16.66752 0,-9.20522 7.4623,-16.66752 16.66752,-16.66752 3.4732,0 6.85965,1.08501 9.68616,3.10343 l -9.68616,13.56409 z"
           sodipodi:ry="16.667517"
           sodipodi:rx="16.667517"
           sodipodi:cy="383.13611"
           sodipodi:cx="332.84528"
           id="path3993"
           style="fill:#000000;fill-opacity:1;stroke:none"
           sodipodi:type="arc" />
        <path
           transform="matrix(0.70967742,0,0,0.70967742,107.39516,109.5487)"
           d="m 341.5,387.23718 c 0,2.14011 -1.7349,3.875 -3.875,3.875 -2.1401,0 -3.875,-1.73489 -3.875,-3.875 0,-2.1401 1.7349,-3.875 3.875,-3.875 2.1401,0 3.875,1.7349 3.875,3.875 z"
           sodipodi:ry="3.875"
           sodipodi:rx="3.875"
           sodipodi:cy="387.23718"
           sodipodi:cx="337.625"
           id="path3995"
           style="fill:#ffffff;fill-opacity:1;stroke:none"
           sodipodi:type="arc" />
      </g>
      <path
         sodipodi:nodetypes="cccccscccccccsccssssssscssc"
         inkscape:connector-curvature="0"
         id="path4141"
         transform="translate(42.983568,115.23122)"
         d="m 218,218.46875 -6,2 c -0.71809,0.27949 -1.42152,0.55959 -2.125,0.84375 3.67319,-1.24935 6.78038,-2.39554 8.125,-2.84375 z m -8.125,2.84375 c -7.82989,2.66315 -18.48182,5.85285 -21.875,4.15625 -0.56556,-0.28278 -1.17606,-0.58706 -1.75,-0.875 -23.96697,7.71973 -45.17046,21.31921 -59.53125,44.09375 -34.73854,75.64585 -13.30572,162.84642 15,237.0625 8.73794,25.87806 17.83808,54.84019 38.84375,73.375 6.17344,4.13028 12.8985,7.95434 20.21875,11.4375 14.70041,5.5916 29.75267,9.42755 45.03125,11.875 0.0203,0.003 0.0422,-0.003 0.0625,0 20.87635,-0.22666 47.38156,2.03125 65.125,2.03125 12.00504,0 43.12862,-3.89884 63.0625,-5.3125 3.11234,-0.45809 6.2113,-0.92372 9.3125,-1.40625 2.06996,-0.57782 3.6697,-1.32595 4.625,-2.28125 0.44646,-0.44646 -20.48612,-2.49537 -22,-3 -9.54277,-3.18092 -19.22832,-6.55708 -29,-9 -22.04885,-5.51221 -103.69802,-36.31259 -115,-46 -72.27179,-61.94725 -19.82933,-52.65866 -44,-101 -4.13243,-8.26485 -15.93265,7.1347 -18,3 -3.83921,-7.67841 15.28434,-21.43132 10,-32 -1.48139,-2.96279 -10.6761,-2.94544 -12.1875,-1.25 -0.87235,-3.23183 -3.8125,-11.92743 -3.8125,-13.75 0,-14.0421 -12,-24.09953 -12,-39 0,-60.86947 3.67282,-106.22284 67.875,-132.15625 z"
         style="fill:#59a2b4;fill-opacity:1;stroke:none" />
      <path
         style="fill:none;stroke:#162d50;stroke-width:5.73948717;stroke-linecap:butt;stroke-linejoin:miter;stroke-opacity:1"
         d="m 184.69088,620.96644 c -28.30572,-74.21608 -49.72032,-161.402 -14.98178,-237.04785 33.44984,-53.04754 104.0158,-56.40302 160.18665,-51.30768 79.53178,3.98745 157.40446,44.18259 199.82144,112.70228 24.56175,35.77479 33.0446,78.93894 44.30392,119.80467 9.84734,64.39676 -36.36513,137.14992 -104.72762,140.71555 -77.55987,13.24837 -162.28346,28.78952 -236.81934,-4.72731 -27.54899,-17.59694 -37.89462,-50.85367 -47.78327,-80.13966 z"
         id="path4157"
         inkscape:connector-curvature="0" />
      <path
         sodipodi:nodetypes="cccccccccccccc"
         inkscape:connector-curvature="0"
         id="path3997"
         d="m 217.53974,511.5257 c -8.40873,8.61064 -21.53978,13.91633 -24.61619,26.66042 -5.68511,17.42748 -14.15823,28.65352 -25.25488,43.69257 -3.02159,8.74136 -17.8358,19.35456 -17.15719,29.34913 4.97904,5.18762 12.92795,0.5182 16.1587,-3.87774 2.89392,-2.704 14.41428,-14.20414 14.59031,-12.60962 -3.81396,3.37682 -3.42394,11.73753 3.24254,7.87615 4.95533,-4.46982 8.6608,-10.31743 13.26508,-15.27051 3.93482,1.22729 -6.38709,11.80235 -0.93984,14.10936 7.43241,-1.08316 10.16369,-10.16909 13.2814,-16.03865 2.07813,-3.16785 2.69633,-11.84715 4.43644,-11.89818 3.18594,5.35775 7.29109,14.58792 14.99308,12.26371 7.21288,-4.03032 7.932,-13.37729 9.546,-20.65028 1.59069,-12.45848 2.70926,-25.89698 -2.73024,-37.62479"
         style="fill:#5fbcd3;fill-opacity:1;stroke:#162d50;stroke-width:5.73948717;stroke-linecap:round;stroke-linejoin:round;stroke-opacity:1" />
      <path
         inkscape:connector-curvature="0"
         id="path4029"
         d="m 363.78517,729.78129 16.74017,-1.43487"
         style="fill:none;stroke:#800000;stroke-width:1.91316247;stroke-linecap:butt;stroke-linejoin:miter;stroke-opacity:1" />
      <path
         inkscape:connector-curvature="0"
         id="path4031"
         d="m 367.6115,736.95565 11.00068,0.47829"
         style="fill:none;stroke:#800000;stroke-width:1.91316247;stroke-linecap:butt;stroke-linejoin:miter;stroke-opacity:1" />
      <path
         inkscape:connector-curvature="0"
         id="path4033"
         d="m 366.65491,745.08659 6.69607,2.39145"
         style="fill:none;stroke:#800000;stroke-width:1.91316247;stroke-linecap:butt;stroke-linejoin:miter;stroke-opacity:1" />
      <path
         inkscape:connector-curvature="0"
         id="path4035"
         d="m 381.48192,727.86813 13.39214,-2.39145"
         style="fill:none;stroke:#800000;stroke-width:1.91316247;stroke-linecap:butt;stroke-linejoin:miter;stroke-opacity:1" />
      <path
         inkscape:connector-curvature="0"
         id="path4037"
         d="m 381.00363,735.04249 13.87043,-3.82633"
         style="fill:none;stroke:#800000;stroke-width:1.91316247;stroke-linecap:butt;stroke-linejoin:miter;stroke-opacity:1" />
      <path
         inkscape:connector-curvature="0"
         id="path4039"
         d="m 379.09047,742.21685 12.91385,-1.91317"
         style="fill:none;stroke:#800000;stroke-width:1.91316247;stroke-linecap:butt;stroke-linejoin:miter;stroke-opacity:1" />
      <path
         inkscape:connector-curvature="0"
         id="path4041"
         d="m 395.83064,725.47668 9.56581,-1.91317"
         style="fill:none;stroke:#800000;stroke-width:1.91316247;stroke-linecap:butt;stroke-linejoin:miter;stroke-opacity:1" />
      <path
         inkscape:connector-curvature="0"
         id="path4043"
         d="m 396.78722,734.08591 9.08752,-2.39146"
         style="fill:none;stroke:#800000;stroke-width:1.91316247;stroke-linecap:butt;stroke-linejoin:miter;stroke-opacity:1" />
      <path
         inkscape:connector-curvature="0"
         id="path4045"
         d="m 450.83406,716.86744 11.95727,-2.39145"
         style="fill:none;stroke:#800000;stroke-width:1.91316247;stroke-linecap:butt;stroke-linejoin:miter;stroke-opacity:1" />
      <path
         inkscape:connector-curvature="0"
         id="path4047"
         d="m 451.79064,723.08522 12.43556,-2.86974"
         style="fill:none;stroke:#800000;stroke-width:1.91316247;stroke-linecap:butt;stroke-linejoin:miter;stroke-opacity:1" />
      <path
         inkscape:connector-curvature="0"
         id="path4049"
         d="m 472.83543,714.95428 -10.0441,1.43487"
         style="fill:none;stroke:#800000;stroke-width:1.91316247;stroke-linecap:butt;stroke-linejoin:miter;stroke-opacity:1" />
      <path
         inkscape:connector-curvature="0"
         id="path4051"
         d="m 463.26962,725.47668 9.08752,-2.86975"
         style="fill:none;stroke:#800000;stroke-width:1.91316247;stroke-linecap:butt;stroke-linejoin:miter;stroke-opacity:1" />
      <path
         inkscape:connector-curvature="0"
         id="path4053"
         d="m 473.31372,711.60625 7.17436,-1.91316"
         style="fill:none;stroke:#800000;stroke-width:1.91316247;stroke-linecap:butt;stroke-linejoin:miter;stroke-opacity:1" />
      <path
         inkscape:connector-curvature="0"
         id="path4055"
         d="m 480.96637,718.78061 -6.69607,0.95658"
         style="fill:none;stroke:#800000;stroke-width:1.91316247;stroke-linecap:butt;stroke-linejoin:miter;stroke-opacity:1" />
      <path
         sodipodi:nodetypes="ccccc"
         inkscape:connector-curvature="0"
         id="path3019"
         d="m 277.41561,349.42828 c -9.31709,-33.87615 -21.75155,-16.05621 -34.9313,-23.10918 -11.59728,-6.86549 -3.19528,-11.22237 -10.44455,-43.98933 27.6667,51.25978 41.33536,31.3095 81.88915,20.86458 22.75877,-3.52267 12.16078,30.39376 18.23322,34.53451"
         style="fill:#5fbcd3;fill-opacity:1;stroke:#162d50;stroke-width:5.73948717;stroke-linecap:round;stroke-linejoin:round;stroke-opacity:1" />
      <path
         id="path4159"
         transform="translate(42.983568,115.23122)"
         d="m 169.40625,400.90625 c -7.8412,6.28452 -16.97277,11.72287 -19.46875,22.0625 -5.68511,17.42748 -14.15335,28.64845 -25.25,43.6875 -3.02159,8.74136 -17.83486,19.34918 -17.15625,29.34375 4.97904,5.18762 12.9255,0.52094 16.15625,-3.875 2.89392,-2.704 14.41772,-14.21952 14.59375,-12.625 -3.81396,3.37682 -3.41648,11.73638 3.25,7.875 4.95533,-4.46982 8.64572,-10.29692 13.25,-15.25 3.93482,1.22729 -6.38475,11.78674 -0.9375,14.09375 7.43241,-1.08316 10.16354,-10.16169 13.28125,-16.03125 2.07813,-3.16785 2.69739,-11.85522 4.4375,-11.90625 3.11281,5.23477 7.1035,14.1668 14.46875,12.40625 -1.94588,-7.76729 -8.36572,-24.38599 -9.03125,-24.71875 -3.95665,-1.97832 -5.84135,3.8173 -8.5,-1.5 -0.9172,-1.83448 0.74872,-10.12564 -1,-11 -3.99366,-1.99683 -21.11603,11.17405 -14,0.5 6.86691,-10.30038 13.24199,-20.86057 15.90625,-33.0625 z"
         style="fill:#59a2b4;fill-opacity:1;stroke:none"
         inkscape:connector-curvature="0" />
      <path
         style="fill:none;stroke:#162d50;stroke-width:5.73948717;stroke-linecap:round;stroke-linejoin:round;stroke-opacity:1"
         d="m 217.53974,511.5257 c -8.40873,8.61064 -21.53978,13.91633 -24.61619,26.66042 -5.68511,17.42748 -14.15823,28.65352 -25.25488,43.69257 -3.02159,8.74136 -17.8358,19.35456 -17.15719,29.34913 4.97904,5.18762 12.92795,0.5182 16.1587,-3.87774 2.89392,-2.704 14.41428,-14.20414 14.59031,-12.60962 -3.81396,3.37682 -3.42394,11.73753 3.24254,7.87615 4.95533,-4.46982 8.6608,-10.31743 13.26508,-15.27051 3.93482,1.22729 -6.38709,11.80235 -0.93984,14.10936 7.43241,-1.08316 10.16369,-10.16909 13.2814,-16.03865 2.07813,-3.16785 2.69633,-11.84715 4.43644,-11.89818 3.18594,5.35775 7.29109,14.58792 14.99308,12.26371 7.21288,-4.03032 7.932,-13.37729 9.546,-20.65028 1.59069,-12.45848 2.70926,-25.89698 -2.73024,-37.62479"
         id="path4164"
         inkscape:connector-curvature="0"
         sodipodi:nodetypes="cccccccccccccc" />
      <path
         sodipodi:nodetypes="csssssssscsssc"
         transform="translate(42.983568,115.23122)"
         inkscape:connector-curvature="0"
         id="path4168"
         d="m 195.5,178.97473 c 1.60184,6.98146 1.3062,14.11239 4.5,20.5 4.14172,8.28344 28.65401,4.077 35.5,7.5 3.18375,1.59187 5.46917,5.46917 8,8 3.91098,3.91098 6.53253,9.1494 11,12.5 1.37275,1.02956 5.71335,1.28665 4.5,2.5 -2.33036,2.33036 -12.8936,0.83616 -16.5,3 -5.77326,3.46396 -8.65719,11.0786 -14.5,14 -14.24129,7.12065 -29.41134,-3.5 -44,-3.5 -4.94103,0 -16.941,3.17699 -17,3 -10.18639,-19.89352 47.42981,-17.71115 64,-23.5 1.22441,-0.42775 -9.3067,-12.63163 -11,-12.5 -9.95266,0.77367 -14.02429,6.97571 -22.5,-1.5 -7.05691,-7.05691 -4.41388,-42.06938 -2,-30 z"
         style="fill:#59a2b4;fill-opacity:1;stroke:none" />
      <path
         style="fill:none;stroke:#162d50;stroke-width:5.73948717;stroke-linecap:round;stroke-linejoin:round;stroke-opacity:1"
         d="m 277.41561,349.42828 c -9.31709,-33.87615 -21.75155,-16.05621 -34.9313,-23.10918 -11.59728,-6.86549 -3.19528,-11.22237 -10.44455,-43.98933 27.6667,51.25978 41.33536,31.3095 81.88915,20.86458 22.75877,-3.52267 12.16078,30.39376 18.23322,34.53451"
         id="path4170"
         inkscape:connector-curvature="0"
         sodipodi:nodetypes="ccccc" />
      <path
         inkscape:connector-curvature="0"
         id="path4176"
         d="m 403.98357,403.70595 c -0.8334,2.82921 -1.74764,5.71944 -1.65644,8.70187 0.005,0.87027 0.41064,2.16837 1.50262,2.03358 1.24786,-0.22825 2.14434,-1.26786 2.91744,-2.19669 1.15213,-1.58346 2.13656,-3.50397 1.952,-5.51824 -0.0996,-1.28631 -1.10003,-2.3406 -2.31312,-2.68881 -0.77178,-0.26007 -1.59279,-0.32803 -2.4025,-0.33171 z"
         style="fill:#d45500;stroke:#552200;stroke-width:2;stroke-linecap:butt;stroke-linejoin:miter;stroke-opacity:1" />
    </g>
    <text
       xml:space="preserve"
       style="font-size:40px;font-style:normal;font-variant:normal;font-weight:bold;font-stretch:normal;line-height:125%;letter-spacing:0px;word-spacing:0px;fill:#999999;fill-opacity:1;stroke:none;font-family:Arial;-inkscape-font-specification:Arial Bold"
       x="96.719803"
       y="813.58368"
       id="text4231"
       sodipodi:linespacing="125%"><tspan
         sodipodi:role="line"
         id="tspan4233"
         x="96.719803"
         y="813.58368">correohector@ymail.com</tspan></text>
  </g>
</svg>
