<?xml version="1.0" encoding="UTF-8"?>
<!DOCTYPE svg PUBLIC "-//W3C//DTD SVG 1.1//EN" "http://www.w3.org/Graphics/SVG/1.1/DTD/svg11.dtd">
<!-- Creator: CorelDRAW -->
<svg xmlns="http://www.w3.org/2000/svg" xml:space="preserve" width="92.2078mm" height="142.497mm" style="shape-rendering:geometricPrecision; text-rendering:geometricPrecision; image-rendering:optimizeQuality; fill-rule:evenodd; clip-rule:evenodd"
viewBox="0 0 813.849 1257.72"
 xmlns:xlink="http://www.w3.org/1999/xlink">
 <defs>
  <style type="text/css">
   <![CDATA[
    .str1 {stroke:#373435;stroke-width:4.41312}
    .str0 {stroke:#373435;stroke-width:8.82625}
    .fil0 {fill:none}
    .fil6 {fill:#848688}
    .fil5 {fill:#8B4F8B}
    .fil3 {fill:#FDD1A1}
    .fil2 {fill:url(#id0)}
    .fil1 {fill:url(#id1)}
    .fil4 {fill:url(#id2)}
   ]]>
  </style>
  <linearGradient id="id0" gradientUnits="userSpaceOnUse" x1="542.595" y1="719.662" x2="44.5284" y2="442.959">
   <stop offset="0" style="stop-color:#A8CF45"/>
   <stop offset="1" style="stop-color:#FEFEFE"/>
  </linearGradient>
  <linearGradient id="id1" gradientUnits="userSpaceOnUse" x1="316.528" y1="911.923" x2="139.929" y2="700.005">
   <stop offset="0" style="stop-color:#8B4F8B"/>
   <stop offset="1" style="stop-color:#FEFEFE"/>
  </linearGradient>
  <radialGradient id="id2" gradientUnits="userSpaceOnUse" cx="326.92" cy="196.252" r="94.4144" fx="326.92" fy="196.252">
   <stop offset="0" style="stop-color:#FEFEFE"/>
   <stop offset="1" style="stop-color:#FDD1A1"/>
  </radialGradient>
 </defs>
 <g id="Camada_x0020_1">
  <metadata id="CorelCorpID_0Corel-Layer"/>
  <g id="_193488400">
   <g>
    <polyline id="_193714704" class="fil0 str0" points="147.427,855.006 138.086,996.057 352.932,919.459 360.405,983.913 "/>
    <polyline id="_193714608" class="fil0 str0" points="302.489,884.426 309.028,1030.15 522.005,947.012 522.005,1036.41 "/>
    <polygon id="_193714512" class="fil1 str0" points="366.009,763.462 361.339,890.502 252.048,895.172 229.629,797.09 204.408,877.424 90.4461,862.479 132.481,716.757 "/>
    <path id="_193714416" class="fil2 str0" d="M139.954 416.907c-28.8398,56.4765 -8.60029,84.1883 60.7175,83.1362l-146.656 207.373 418.482 80.3339c1.9912,-3.35397 1.69287,-2.57373 2.80233,-6.53848l-52.3105 -234.462c61.0317,9.46968 96.2167,-2.36279 105.555,-35.4965 4.56229,-24.4249 -12.5633,-55.2505 -51.3767,-92.477 -75.4,3.89502 -138.608,-10.7389 -189.624,-43.9035l-22.4187 42.035c-38.3536,-24.9386 -80.077,-24.9386 -125.171,0z"/>
    <ellipse id="_193714320" class="fil3 str0" cx="218.191" cy="150.756" rx="31.0543" ry="18.7514"/>
    <ellipse id="_193713528" class="fil3 str0" cx="620.088" cy="299.677" rx="18.6825" ry="19.1485"/>
    <path id="_193713648" class="fil4 str0" d="M606.076 193.655c15.0823,37.5451 17.5739,78.0231 7.47318,121.434 -47.0139,98.839 -132.019,134.024 -255.013,105.555 -134.347,-39.3183 -184.477,-121.831 -150.391,-247.54 51.7448,-93.5344 124.294,-131.833 217.647,-114.896 72.4953,23.5573 132.59,68.7062 180.284,135.447z"/>
    <line id="_193713720" class="fil0 str0" x1="523.877" y1="479.494" x2="784.084" y2= "361.796" />
    <line id="_193713792" class="fil0 str0" x1="728.447" y1="333.772" x2="727.513" y2= "464.547" />
    <polyline id="_193713912" class="fil0 str0" points="784.084,420.645 727.98,399.16 753.668,447.733 "/>
    <line id="_193714056" class="fil0 str0" x1="169.848" y1="403.831" x2="84.8441" y2= "195.523" />
    <polyline id="_193714152" class="fil0 str0" points="162.375,222.613 106.731,249.158 46.5452,210.47 "/>
    <polyline id="_193714248" class="fil0 str0" points="41.8744,252.505 102.93,239.843 121.274,189.919 "/>
    <path id="_193710048" class="fil0 str0" d="M593.935 173.105c61.8729,30.8989 125.256,50.5153 190.149,58.849"/>
    <path id="_193713360" class="fil0 str0" d="M609.814 211.404c58.8596,25.8627 113.972,44.2336 165.339,55.1129"/>
    <path id="_193713384" class="fil0 str0" d="M619.156 250.636c54.3017,27.3667 103.187,45.7376 146.655,55.1129"/>
    <path id="_189529488" class="fil0 str0" d="M635.97 308.551c48.1419,21.6402 95.3252,40.3783 141.548,56.2144"/>
    <path id="_193712040" class="fil0 str0" d="M200.672 167.499c-71.3593,12.3682 -137.368,-4.13421 -198.028,-49.5082"/>
    <path id="_193711416" class="fil0 str0" d="M239.904 128.267c-99.6801,-0.249783 -175.655,-34.5009 -227.924,-102.753"/>
    <path id="_193708968" class="fil0 str0" d="M273.532 95.5724c-75.6383,-17.3144 -140.404,-45.0262 -194.296,-83.1353"/>
    <path id="_193712400" class="fil0 str0" d="M140.888 4.03006c75.2023,33.5653 137.165,52.5594 185.889,56.9805"/>
    <path id="_193708584" class="fil0 str0" d="M281.939 161.895c-6.86329,161.29 240.987,196.163 286.772,70.993"/>
    <path id="_193711152" class="fil0 str0" d="M482.774 145.081c-11.6921,-23.9659 -24.4584,-27.0789 -38.2988,-9.34082"/>
    <path id="_193708128" class="fil0 str0" d="M412.715 119.86c-10.8589,-13.0867 -25.1822,-12.4635 -42.9697,1.86852"/>
    <path id="_193711800" class="fil0 str0" d="M302.49 92.77c37.5654,-19.1071 64.6549,-37.1664 81.2677,-54.1782"/>
    <path id="_193712496" class="fil0 str0" d="M371.614 85.2977c20.6605,-16.6684 38.7199,-33.7939 54.1782,-51.3767"/>
    <path id="_193711872" class="fil0 str0" d="M427.661 93.7047c10.6197,-15.8263 19.0267,-30.7727 25.221,-44.8373"/>
    <path id="_193707840" class="fil0 str0" d="M496.785 117.991c-3.78028,-20.6914 -8.45113,-39.9961 -14.0117,-57.9143"/>
    <path id="_193709664" class="fil0 str0" d="M534.149 128.267c-9.91982,-13.5439 -14.5907,-27.5555 -14.0117,-42.035"/>
    <path id="_193711632" class="fil0 str0" d="M566.844 139.476c-5.89593,-10.1925 -8.69827,-21.0912 -8.407,-32.6942"/>
    <path id="_193712592" class="fil5" d="M333.315 732.637c75.129,-52.6371 57.3803,-108.994 5.60467,-70.9922 -34.9405,-34.914 -63.8985,-3.77587 -5.60467,70.9922z"/>
    <line id="_193709880" class="fil0 str1" x1="422.99" y1="546.749" x2="390.365" y2= "426.716" />
    <line id="_193712376" class="fil0 str1" x1="200.672" y1="500.043" x2="265.125" y2= "416.907" />
   </g>
   <ellipse id="_193486864" class="fil6" cx="436.468" cy="1162.44" rx="377.38" ry="95.2793"/>
  </g>
 </g>
</svg>
