<?xml version="1.0" encoding="UTF-8"?>
<!DOCTYPE svg PUBLIC "-//W3C//DTD SVG 1.1//EN" "http://www.w3.org/Graphics/SVG/1.1/DTD/svg11.dtd">
<!-- Creator: CorelDRAW -->
<svg xmlns="http://www.w3.org/2000/svg" xml:space="preserve" width="99.469mm" height="138.599mm" style="shape-rendering:geometricPrecision; text-rendering:geometricPrecision; image-rendering:optimizeQuality; fill-rule:evenodd; clip-rule:evenodd"
viewBox="0 0 54.5662 76.0321"
 xmlns:xlink="http://www.w3.org/1999/xlink">
 <defs>
  <style type="text/css">
   <![CDATA[
    .str3 {stroke:#373435;stroke-width:0.109715}
    .str1 {stroke:#373435;stroke-width:0.274287}
    .str0 {stroke:#373435;stroke-width:0.548575}
    .str4 {stroke:#A45E4D;stroke-width:0.548575}
    .str2 {stroke:#373435;stroke-width:0.822862}
    .fil1 {fill:none}
    .fil6 {fill:#373435}
    .fil7 {fill:#718FC8}
    .fil0 {fill:#848688}
    .fil4 {fill:#FDD1A1}
    .fil2 {fill:url(#id0)}
    .fil3 {fill:url(#id1)}
    .fil5 {fill:url(#id2)}
   ]]>
  </style>
  <linearGradient id="id0" gradientUnits="userSpaceOnUse" x1="18.5398" y1="56.0085" x2="40.2397" y2="49.6262">
   <stop offset="0" style="stop-color:#718FC8"/>
   <stop offset="1" style="stop-color:#FEFEFE"/>
  </linearGradient>
  <linearGradient id="id1" gradientUnits="userSpaceOnUse" x1="14.2912" y1="43.1711" x2="42.2821" y2="26.584">
   <stop offset="0" style="stop-color:#FFCC29"/>
   <stop offset="1" style="stop-color:#FEFEFE"/>
  </linearGradient>
  <radialGradient id="id2" gradientUnits="userSpaceOnUse" cx="34.6184" cy="10.1451" r="5.74489" fx="34.6184" fy="10.1451">
   <stop offset="0" style="stop-color:#FEFEFE"/>
   <stop offset="1" style="stop-color:#FDD1A1"/>
  </radialGradient>
 </defs>
 <g id="Camada_x0020_1">
  <metadata id="CorelCorpID_0Corel-Layer"/>
  <g id="_193174536">
   <ellipse id="_193491304" class="fil0" cx="17.7457" cy="70.6908" rx="16.3722" ry="5.34125"/>
   <g>
    <polyline id="_193720296" class="fil1 str0" points="30.4348,74.0664 36.705,71.0474 34.8472,57.5781 "/>
    <polyline id="_193720176" class="fil1 str0" points="23.584,58.9715 23.0439,72.4126 15.2642,74.9666 "/>
    <polygon id="_193719384" class="fil2 str0" points="39.6079,58.3908 35.66,43.9926 19.1716,46.1988 19.2877,61.6421 19.2877,61.2937 27.8803,60.3648 29.0414,57.8103 29.9703,60.2487 "/>
    <polyline id="_193720104" class="fil1 str1" points="38.1698,53.146 33.2216,53.9785 32.3438,44.4363 32.5249,45.0376 "/>
    <path id="_193719840" class="fil1 str1" d="M23.2558 45.6523l0.212079 9.6034c-0.986831,0 -0.341323,0.00702176 -0.464423,-0.116078l-3.76284 0.232541 0 -0.00087772"/>
    <line id="_193719864" class="fil1 str0" x1="40.1885" y1="29.5943" x2="54.5075" y2= "32.7295" />
    <polyline id="_193716432" class="fil1 str0" points="53.7739,29.246 50.3378,31.8165 53.1933,35.2839 "/>
    <polyline id="_193712808" class="fil1 str0" points="51.2194,28.4332 50.3378,31.8165 49.826,36.5612 "/>
    <path id="_191679848" class="fil1 str0" d="M15.5721 27.5043l-8.59249 -1.2773c-0.421799,-0.140545 -0.226013,-0.116078 -0.580612,-0.116078l-6.26505 0.928902 0.691533 -0.116133"/>
    <polyline id="_193711824" class="fil1 str0" points="0.133907,23.9047 4.56431,26.3829 2.10274,29.0137 2.21882,29.0137 "/>
    <line id="_189534168" class="fil1 str0" x1="5.12171" y1="22.8597" x2="4.30889" y2= "29.4782" />
    <polygon id="_193713000" class="fil3 str0" points="17.546,47.1277 21.7261,33.0778 15.1076,33.5422 14.9915,25.6464 23.7001,25.4142 24.629,22.8597 32.641,22.6274 32.7571,25.2981 41.5819,27.1559 40.5368,34.2389 35.7761,33.7745 39.1434,45.2699 38.7951,45.1537 "/>
    <line id="_193057120" class="fil1 str1" x1="21.7261" y1="33.0778" x2="23.7001" y2= "25.4142" />
    <line id="_193712856" class="fil1 str1" x1="35.7761" y1="33.7745" x2="32.7571" y2= "25.2981" />
    <path id="_193175736" class="fil1 str0" d="M31.1315 33.5422c2.83663,-0.0345054 3.41724,-1.77623 1.74172,-5.22517l-4.29627 0.348345c-0.0249053,3.32091 0.826592,4.9465 2.55455,4.87683z"/>
    <ellipse id="_193720344" class="fil4 str0" cx="42.5108" cy="12.7576" rx="1.62559" ry="1.16111"/>
    <path id="_193716984" class="fil5 str0" d="M31.0154 1.49448c4.42212,0.171759 7.54565,1.82083 9.37064,4.94727 2.27516,3.654 1.62877,8.00414 -1.93927,13.0505 -3.20724,4.95242 -8.78076,6.2684 -16.7206,3.94793 -5.43714,-2.45438 -7.78932,-6.74467 -7.05654,-12.8708 1.81139,-6.18304 7.26,-9.20805 16.3458,-9.07491z"/>
    <path id="_193715064" class="fil1 str2" d="M19.4039 12.4093c2.1542,9.09575 15.3139,8.74746 16.4883,0.348345"/>
    <ellipse id="_191680928" class="fil6 str3" transform="matrix(0.984808 -0.173648 0.173648 0.984808 29.622 10.5515)" rx="0.638651" ry="0.928902"/>
    <ellipse id="_193711560" class="fil6 str3" transform="matrix(-0.984808 -0.173648 -0.173648 0.984808 26.7191 10.7837)" rx="0.638651" ry="0.928902"/>
    <path id="_191679824" class="fil1 str4" d="M35.5439 6.66156c1.05705,1.26776 1.7731,2.15798 2.14811,2.67068"/>
    <path id="_191679800" class="fil1 str4" d="M37.2275 6.25518c0.621919,0.887978 1.60886,1.83624 2.96093,2.84485"/>
    <path id="_193716744" class="fil1 str4" d="M38.679 5.90683c1.39612,1.35564 3.07981,2.18783 5.051,2.49651"/>
    <path id="_193720152" class="fil1 str4" d="M40.386 6.44175c2.79746,0.621535 4.82164,0.946401 6.07267,0.974598"/>
    <path id="_193716096" class="fil1 str4" d="M19.7522 7.53248c-0.988916,1.23939 -1.39535,2.40056 -1.21921,3.48345"/>
    <path id="_193707768" class="fil1 str4" d="M17.9524 7.82273c-0.605462,1.04745 -0.876403,1.97635 -0.812768,2.78676"/>
    <path id="_193716768" class="fil1 str4" d="M17.0815 7.70665c-1.05074,1.60667 -1.90471,3.42804 -2.56184,5.46419"/>
    <path id="_193716720" class="fil1 str4" d="M15.2914 8.8772c-1.73536,1.51807 -3.17065,2.98573 -4.30587,4.40297"/>
    <path id="_191680448" class="fil7 str0" d="M19.6361 8.34525c7.7066,0.118986 14.9058,-0.577704 21.5974,-2.09007 -1.37072,-3.22737 -5.70573,-5.22068 -13.005,-5.9799 -6.59837,0.465301 -11.0494,3.46496 -13.3532,8.99893 -5.62827,1.43908 -8.37635,4.14843 -8.24415,8.12801 2.2333,1.50211 5.02006,1.38603 8.36028,-0.348345 -0.589444,-2.51335 -0.628118,-5.10657 -0.116133,-7.77967 0.577046,-0.819296 2.16396,-1.12897 4.7607,-0.928956zm13.3532 -1.97394c-2.31334,0.693947 -4.55822,0.771351 -6.73469,0.232212 0.795543,-1.68412 1.87925,-2.80656 3.25124,-3.36732 1.19518,-0.431344 2.16281,0.0718633 2.90289,1.50951 0.387019,1.08371 0.580557,1.62559 0.580557,1.62559z"/>
    <path id="_193174392" class="fil4 str0" d="M13.5543 15.7184c0.446759,0 0.854186,-0.140216 1.16248,-0.370617 -0.070821,-1.01876 -0.142794,-1.36304 -0.190191,-2.2852 -0.277634,-0.15596 -0.612209,-0.247023 -0.972294,-0.247023 -0.961926,0 -1.74172,0.649842 -1.74172,1.45142 0,0.801577 0.779799,1.45142 1.74172,1.45142z"/>
   </g>
  </g>
 </g>
</svg>
