<?xml version="1.0" encoding="UTF-8"?>
<!DOCTYPE svg PUBLIC "-//W3C//DTD SVG 1.1//EN" "http://www.w3.org/Graphics/SVG/1.1/DTD/svg11.dtd">
<!-- Creator: CorelDRAW -->
<svg xmlns="http://www.w3.org/2000/svg" xml:space="preserve" width="100.833mm" height="149.137mm" style="shape-rendering:geometricPrecision; text-rendering:geometricPrecision; image-rendering:optimizeQuality; fill-rule:evenodd; clip-rule:evenodd"
viewBox="0 0 701.093 1036.95"
 xmlns:xlink="http://www.w3.org/1999/xlink">
 <defs>
  <style type="text/css">
   <![CDATA[
    .str3 {stroke:#373435;stroke-width:1.39061}
    .str2 {stroke:#373435;stroke-width:3.47651}
    .str0 {stroke:#373435;stroke-width:6.95303}
    .str1 {stroke:#D7CC75;stroke-width:6.95303}
    .str4 {stroke:#373435;stroke-width:10.4295}
    .fil1 {fill:none}
    .fil8 {fill:#373435}
    .fil0 {fill:#848688}
    .fil7 {fill:#ED3237}
    .fil5 {fill:#FDD1A1}
    .fil9 {fill:#FEFEFE}
    .fil3 {fill:url(#id0)}
    .fil4 {fill:url(#id1)}
    .fil2 {fill:url(#id2)}
    .fil6 {fill:url(#id3)}
   ]]>
  </style>
  <linearGradient id="id0" gradientUnits="userSpaceOnUse" x1="512.088" y1="383.466" x2="526.079" y2="528.037">
   <stop offset="0" style="stop-color:#FEFEFE"/>
   <stop offset="1" style="stop-color:#D2D3D5"/>
  </linearGradient>
  <linearGradient id="id1" gradientUnits="userSpaceOnUse" x1="304.084" y1="711.874" x2="291.422" y2="344.64">
   <stop offset="0" style="stop-color:#ED3237"/>
   <stop offset="1" style="stop-color:#FEFEFE"/>
  </linearGradient>
  <linearGradient id="id2" gradientUnits="userSpaceOnUse" xlink:href="#id0" x1="160.331" y1="407.458" x2="104.969" y2="520.586">
  </linearGradient>
  <radialGradient id="id3" gradientUnits="userSpaceOnUse" cx="295.342" cy="156.604" r="81.2218" fx="295.342" fy="156.604">
   <stop offset="0" style="stop-color:#FEFEFE"/>
   <stop offset="1" style="stop-color:#FDD1A1"/>
  </radialGradient>
 </defs>
 <g id="Camada_x0020_1">
  <metadata id="CorelCorpID_0Corel-Layer"/>
  <g id="_193492456">
   <ellipse id="_193489600" class="fil0" cx="426.846" cy="982.498" rx="236.947" ry="54.4533"/>
   <g>
    <polyline id="_193719624" class="fil1 str0" points="126.316,474.667 66.2554,551.018 54.3782,591.972 "/>
    <polyline id="_193719528" class="fil1 str0" points="1.11527,528.953 66.2554,551.018 108.453,601.652 "/>
    <polyline id="_193719432" class="fil1 str0" points="78.8084,603.618 66.2554,551.018 17.6663,565.147 "/>
    <polyline id="_193719288" class="fil1 str0" points="520.604,437.038 650.837,470.728 699.974,475.826 "/>
    <polyline id="_193719192" class="fil1 str0" points="642.73,531.514 650.837,470.728 677.404,426.152 "/>
    <polyline id="_193719096" class="fil1 str0" points="697.724,441.155 650.837,470.728 676.634,507.73 676.231,507.11 "/>
    <path id="_193718952" class="fil2 str0" d="M122.731 409.394l50.7001 92.7596c-16.4133,13.4548 -30.6997,16.4974 -42.8578,9.12793 -0.559023,-15.8529 4.22396,-27.3817 14.3497,-34.5857 -31.9318,13.3269 -40.3943,5.23285 -25.3876,-24.2834 -24.4788,2.20341 -27.6675,-8.58907 -9.56597,-32.3782 4.53685,-3.28809 8.79071,-6.83483 12.7616,-10.6402z"/>
    <path id="_193718856" class="fil3 str0" d="M477.123 497.091c-0.946307,-4.75378 -0.324706,-1.60963 -0.324706,-1.999l37.102 -109.641c45.9366,16.5962 46.2022,30.3312 0.795426,41.205 47.2959,19.5345 42.8807,29.3459 -13.2455,29.4349 49.4889,28.6305 46.668,38.0741 -8.46253,28.3308 29.2437,8.05786 38.3188,17.5015 27.2267,28.3308 -12.0635,13.2977 -26.4271,8.07733 -43.0914,-15.6617z"/>
    <path id="_193718760" class="fil1 str1" d="M89.7337 224.999c-9.98107,0 -22.7218,-11.2458 -4.72041,-26.8595 29.2417,-25.3619 36.9574,36.2788 14.9907,13.1301 -9.11403,-9.60422 -0.175912,-16.7283 2.60739,-26.3756 17.1649,-5.94206 15.7125,-23.1202 44.3096,-9.62925 4.31296,18.4443 -24.8293,4.13983 -17.3874,-5.79187 -0.0285074,-0.111944 11.2159,-33.3905 32.6827,-16.8931 1.45735,1.11944 10.1146,4.78507 11.4057,7.29512"/>
    <path id="_193718664" class="fil1 str1" d="M34.9466 162.661c3.08575,-8.28314 24.3467,-44.0426 32.6514,-18.7648 0.868433,2.64354 -1.3475,7.82633 -3.82625,8.83034 -8.12044,-6.04496 3.59958,-32.552 31.1482,-35.2901 13.1572,-1.30717 26.1775,27.5639 5.88643,27.5639 0,-37.0624 43.6442,-34.4112 45.5924,-10.5756 2.19507,26.8609 -41.2933,-3.57594 -2.66996,-20.6046 20.9383,-9.23153 29.8792,7.68588 29.1923,27.8684 -0.0646632,1.90443 0,9.67722 0,12.1421"/>
    <path id="_193718568" class="fil1 str1" d="M700.129 57.9882l-0.946307 0.273254c-5.03191,1.45249 -8.07177,3.47999 -10.0916,4.14192 -3.19492,33.9808 2.94044,10.2926 1.40799,6.16038 -14.5311,-39.1914 -56.104,19.5846 -35.8992,12.7296 7.04481,-2.38976 1.54357,-22.0029 -2.73323,-21.0343 -5.5207,-7.7867 -28.951,6.56783 -31.4534,11.8681 -4.06474,0.615343 -6.94051,15.5623 -6.3495,19.3113 21.1782,3.34162 20.4099,-43.1248 -20.1728,-28.3628 -13.8894,5.05276 -25.7116,35.7448 -2.97451,28.4573 3.49946,-10.9156 9.36086,-47.4954 -12.7206,-36.1523l-0.777348 0.399799c-4.12384,3.33606 -35.9569,6.00602 -37.7084,12.5092"/>
    <path id="_193718472" class="fil1 str1" d="M579.815 149.974c0.479064,-0.695303 4.42143,-39.9006 -31.3053,-25.576 -1.08954,0.43665 -0.366425,0.189122 -1.44067,0.189122 -0.00208591,0.00347651 -27.7537,24.0324 1.56652,19.1326 2.08313,-0.348347 3.91316,-3.09688 3.52171,-5.18279 17.409,-14.5033 -23.9254,-40.7712 -35.7844,-20.2048 -7.97026,13.824 45.3143,3.13095 6.68603,-26.3123 -13.6474,-10.4024 -18.4735,1.29326 -24.1889,1.29326"/>
    <path id="_193718376" class="fil1 str1" d="M593.061 234.595c16.5489,-18.689 6.59773,-30.0705 7.42166,-34.6483 -30.473,-21.6142 -77.3858,37.4914 -44.5515,22.6224 31.9895,-14.4866 5.56798,-64.0603 -13.4034,-42.2389 -8.94437,10.2884 6.25286,10.4963 8.95689,7.53778 14.1584,-15.4906 23.6417,-30.7442 -6.83344,-37.1924 -6.21114,-1.31482 -22.4708,4.52573 -23.0743,8.41525 15.175,12.2088 50.3128,-19.2627 20.2569,-40.8143 -18.4234,-13.2114 -29.5379,2.62755 -42.2278,2.62755"/>
    <polygon id="_193718280" class="fil4 str0" points="514.21,384.916 477.123,497.091 440.852,502.645 501.414,696.611 81.2969,701.13 181.423,516.773 121.017,406.257 269.326,356.554 352.14,355.384 "/>
    <line id="_193718184" class="fil1 str2" x1="181.423" y1="516.774" x2="269.017" y2= "357.09" />
    <ellipse id="_193718088" class="fil5 str0" cx="156.833" cy="204.792" rx="21.8459" ry="18.0137"/>
    <ellipse id="_193717992" class="fil5 str0" cx="549.275" cy="203.675" rx="21.8459" ry="18.0137"/>
    <path id="_193717896" class="fil6 str0" d="M162.672 257.189c-64.303,-261.446 364.446,-315.615 380.202,-54.4241 -35.8637,180.84 -294.785,236.039 -380.202,54.4241z"/>
    <polygon id="_193717752" class="fil7 str2" points="430.802,59.4595 466.123,3.42576 494.822,55.7807 552.955,87.4225 552.219,30.7609 482.313,56.5163 "/>
    <ellipse id="_193717680" class="fil8 str3" cx="361.204" cy="119.977" rx="9.96473" ry="12.2643"/>
    <ellipse id="_193717656" class="fil8 str3" cx="310.613" cy="125.343" rx="9.96473" ry="12.2643"/>
    <path id="_193717560" class="fil1 str4" d="M457.021 162.903c-18.089,183.956 -213.556,182.168 -234.56,6.13257"/>
    <polyline id="_193717464" class="fil1 str0" points="361.856,698.112 342.068,977.002 426.846,982.498 "/>
    <polyline id="_193717368" class="fil1 str0" points="260.107,699.206 226.814,981.345 150.395,993.971 "/>
    <line id="_193717272" class="fil1 str2" x1="403.877" y1="364.811" x2="440.852" y2= "502.645" />
    <ellipse id="_193716816" class="fil7 str2" cx="494.822" cy="55.7807" rx="20.9717" ry="20.2361"/>
    <path id="_193705464" class="fil1 str1" d="M57.7199 67.1864c-3.90273,-3.78106 -7.80477,-18.0083 -2.14431,-22.0126 -0.164091,-0.725201 -0.196075,-0.39076 0.367815,-1.08884 1.0207,-4.21562 23.997,-21.7915 40.3776,-0.814199 15.8091,20.2465 -30.0823,52.3827 -19.7737,24.378 5.11534,-13.8984 42.3606,-21.6357 46.3906,-1.93433 -8.00363,9.78708 3.79983,5.68271 -12.2672,18.365 -18.016,14.221 -10.6013,-12.2832 -9.16687,-13.7816 13.6425,-22.0001 50.7029,-21.2867 48.9034,7.46407 -1.73756,27.7474 -41.3079,-6.74235 -5.68758,-13.856 14.7029,-2.93557 24.3523,-1.72713 32.1751,19.9413 0.134193,0.990806 0.0743974,0.663319 0.483235,1.7619"/>
    <path id="_193716600" class="fil1 str1" d="M447.359 91.8377c0.616734,-18.4999 -53.0433,-25.3514 -55.1897,1.83977 2.37515,2.05045 29.7082,-4.55701 17.7865,-25.6608 -16.1839,-28.6486 -62.0238,18.915 -28.709,11.2479 16.9438,-3.89926 52.8604,-36.4645 0.326097,-52.3619 -2.11789,-0.640374 -4.29767,-1.93016 -6.32865,-2.0282"/>
    <path id="_193704960" class="fil1 str1" d="M352.801 80.4319c-7.535,3.12121 -15.0818,0.221106 -23.8371,1.6875 -8.55292,1.43232 -19.9684,22.3491 6.02897,3.43201 17.6343,-12.8311 4.47358,-30.0524 -22.9373,-28.636 -6.22435,0.321925 -13.5709,10.271 1.64995,10.271 7.38898,0 45.2093,-21.4633 3.00649,-32.0736 -10.9677,-2.75757 -27.0994,-1.91834 -38.2333,-0.304543"/>
    <ellipse id="_193712232" class="fil9" cx="260.449" cy="503.921" rx="22.0759" ry="21.3395"/>
    <ellipse id="_193711392" class="fil9" cx="356.111" cy="431.071" rx="22.0759" ry="23.5471"/>
    <ellipse id="_193712760" class="fil9" cx="460.235" cy="413.778" rx="22.4437" ry="23.1793"/>
    <ellipse id="_193716888" class="fil9" cx="178.399" cy="425.185" rx="18.7641" ry="19.8683"/>
    <ellipse id="_193713408" class="fil9" cx="410.564" cy="528.573" rx="22.0759" ry="22.4437"/>
    <ellipse id="_193706712" class="fil9" cx="296.874" cy="584.866" rx="24.6513" ry="22.0759"/>
    <ellipse id="_193716456" class="fil9" cx="442.575" cy="605.47" rx="19.5005" ry="20.6039"/>
    <ellipse id="_193711944" class="fil9" cx="180.975" cy="624.971" rx="24.2834" ry="20.2361"/>
    <path id="_193715376" class="fil9" d="M242.523 412.849c3.38126,2.98076 7.78252,4.78368 12.5954,4.78368 10.6652,0 19.3419,-8.77472 19.3113,-19.7702 -0.0236403,-8.58699 -5.35314,-15.9815 -12.7122,-18.6821 -2.39323,4.27194 -8.29009,16.9654 -19.1945,33.6686z"/>
    <path id="_193715040" class="fil9" d="M387.115 670.184c13.6147,0 24.6513,10.7077 24.6513,23.9156 -18.397,-0.216239 -31.8254,-0.216934 -49.3025,0 0,-13.208 11.0365,-23.9156 24.6513,-23.9156z"/>
    <polygon id="_193710720" class="fil7 str2" points="299.819,85.9505 294.681,39.5134 171.042,105.083 190.911,44.0064 233.591,82.6395 "/>
    <ellipse id="_193717008" class="fil7 str2" cx="233.591" cy="82.6395" rx="21.3395" ry="20.2361"/>
   </g>
  </g>
 </g>
</svg>
